<svg width="64" height="64" viewBox="0 0 64 64" fill="none" xmlns="http://www.w3.org/2000/svg">
<path fill-rule="evenodd" clip-rule="evenodd" d="M39.9073 19.2741H32.9884V21.8687C32.9884 22.4829 32.4906 22.9807 31.8764 22.9807C31.2623 22.9807 30.7645 22.4829 30.7645 21.8687V19.2741H23.8456V21.8687C23.8456 22.4829 23.3477 22.9807 22.7336 22.9807C22.1194 22.9807 21.6216 22.4829 21.6216 21.8687V19.2741H16.8031C16.2572 19.2741 15.8147 19.7167 15.8147 20.2625V47.1969C15.8147 47.7428 16.2572 48.1853 16.8031 48.1853H47.1969C47.7428 48.1853 48.1853 47.7428 48.1853 47.1969V20.2625C48.1853 19.7167 47.7428 19.2741 47.1969 19.2741H42.1313V21.8687C42.1313 22.4829 41.6334 22.9807 41.0193 22.9807C40.4052 22.9807 39.9073 22.4829 39.9073 21.8687V19.2741ZM21.6216 27.4286H26.3166V31.0116H21.6216V27.4286ZM21.6216 36.695V33.112H26.3166V36.695H21.6216ZM21.6216 42.5019V38.7954H26.3166V42.5019H21.6216ZM34.3475 42.5019H29.529V38.7954H34.3475V42.5019ZM42.2548 38.7954V42.5019H37.5598V38.7954H42.2548ZM42.2548 33.112V36.695H37.5598V33.112H42.2548ZM42.2548 27.4286V31.0116H37.5598V27.4286H42.2548ZM29.529 27.4286H34.3475V31.0116H29.529V27.4286ZM29.529 33.112V36.695H34.3475V33.112H29.529Z" fill="white"/>
<path fill-rule="evenodd" clip-rule="evenodd" d="M32 64C49.6731 64 64 49.6731 64 32C64 14.3269 49.6731 0 32 0C14.3269 0 0 14.3269 0 32C0 49.6731 14.3269 64 32 64ZM23.8456 14.8263C23.8456 14.2121 23.3477 13.7143 22.7336 13.7143C22.1194 13.7143 21.6216 14.2121 21.6216 14.8263V17.0502H16.8031C15.029 17.0502 13.5907 18.4884 13.5907 20.2625V47.1969C13.5907 48.971 15.029 50.4093 16.8031 50.4093H47.1969C48.971 50.4093 50.4093 48.971 50.4093 47.1969V20.2625C50.4093 18.4884 48.971 17.0502 47.1969 17.0502H42.1313V14.8263C42.1313 14.2121 41.6334 13.7143 41.0193 13.7143C40.4052 13.7143 39.9073 14.2121 39.9073 14.8263V17.0502H32.9884V14.8263C32.9884 14.2121 32.4906 13.7143 31.8764 13.7143C31.2623 13.7143 30.7645 14.2121 30.7645 14.8263V17.0502H23.8456V14.8263Z" fill="white"/>
</svg>
